<svg xmlns="http://www.w3.org/2000/svg" viewBox="0 0 1400 820" width="1400" height="820" font-family="-apple-system, BlinkMacSystemFont, 'Inter', 'Helvetica Neue', sans-serif">
<defs>
    <radialGradient id="bg" cx="50%" cy="35%" r="85%">
      <stop offset="0%" stop-color="#16182a"/>
      <stop offset="60%" stop-color="#0a0c18"/>
      <stop offset="100%" stop-color="#04050d"/>
    </radialGradient>
    <pattern id="grid" x="0" y="0" width="40" height="40" patternUnits="userSpaceOnUse">
      <circle cx="0" cy="0" r="1" fill="#3a3a5a" fill-opacity="0.15"/>
    </pattern>
    <filter id="softshadow" x="-10%" y="-10%" width="120%" height="140%">
      <feDropShadow dx="0" dy="6" stdDeviation="14" flood-color="#000" flood-opacity="0.55"/>
    </filter>
    <linearGradient id="titleGrad" x1="0" x2="1" y1="0" y2="0">
      <stop offset="0%" stop-color="#7B68EE"/>
      <stop offset="100%" stop-color="#00B4FF"/>
    </linearGradient>
    <marker id="arrow" viewBox="0 0 10 10" refX="9" refY="5" markerWidth="7" markerHeight="7" orient="auto">
      <path d="M 0 0 L 10 5 L 0 10 z" fill="#7080a0"/>
    </marker>
    <marker id="arrow-red" viewBox="0 0 10 10" refX="9" refY="5" markerWidth="7" markerHeight="7" orient="auto">
      <path d="M 0 0 L 10 5 L 0 10 z" fill="#FF6B6B"/>
    </marker>
    <marker id="arrow-green" viewBox="0 0 10 10" refX="9" refY="5" markerWidth="7" markerHeight="7" orient="auto">
      <path d="M 0 0 L 10 5 L 0 10 z" fill="#7BFF7B"/>
    </marker>
    <marker id="arrow-gold" viewBox="0 0 10 10" refX="9" refY="5" markerWidth="7" markerHeight="7" orient="auto">
      <path d="M 0 0 L 10 5 L 0 10 z" fill="#FFD700"/>
    </marker>
    
    <linearGradient id="cg-admin" x1="0" x2="1" y1="0" y2="1">
      <stop offset="0%" stop-color="rgba(0,180,255,0.12)"/>
      <stop offset="100%" stop-color="rgba(0,180,255,0.015)"/>
    </linearGradient>
    <linearGradient id="strip-admin" x1="0" x2="0" y1="0" y2="1">
      <stop offset="0%" stop-color="#00B4FF" stop-opacity="0.95"/>
      <stop offset="100%" stop-color="#00B4FF" stop-opacity="0.5"/>
    </linearGradient>
    <linearGradient id="cg-monitor" x1="0" x2="1" y1="0" y2="1">
      <stop offset="0%" stop-color="rgba(123,104,238,0.12)"/>
      <stop offset="100%" stop-color="rgba(123,104,238,0.015)"/>
    </linearGradient>
    <linearGradient id="strip-monitor" x1="0" x2="0" y1="0" y2="1">
      <stop offset="0%" stop-color="#7B68EE" stop-opacity="0.95"/>
      <stop offset="100%" stop-color="#7B68EE" stop-opacity="0.5"/>
    </linearGradient>
    <linearGradient id="cg-act" x1="0" x2="1" y1="0" y2="1">
      <stop offset="0%" stop-color="rgba(255,140,0,0.12)"/>
      <stop offset="100%" stop-color="rgba(255,140,0,0.015)"/>
    </linearGradient>
    <linearGradient id="strip-act" x1="0" x2="0" y1="0" y2="1">
      <stop offset="0%" stop-color="#FF8C00" stop-opacity="0.95"/>
      <stop offset="100%" stop-color="#FF8C00" stop-opacity="0.5"/>
    </linearGradient>
    <linearGradient id="cg-inbox" x1="0" x2="1" y1="0" y2="1">
      <stop offset="0%" stop-color="rgba(255,215,0,0.12)"/>
      <stop offset="100%" stop-color="rgba(255,215,0,0.015)"/>
    </linearGradient>
    <linearGradient id="strip-inbox" x1="0" x2="0" y1="0" y2="1">
      <stop offset="0%" stop-color="#FFD700" stop-opacity="0.95"/>
      <stop offset="100%" stop-color="#FFD700" stop-opacity="0.5"/>
    </linearGradient>
    <linearGradient id="cg-outbox" x1="0" x2="1" y1="0" y2="1">
      <stop offset="0%" stop-color="rgba(123,255,123,0.12)"/>
      <stop offset="100%" stop-color="rgba(123,255,123,0.015)"/>
    </linearGradient>
    <linearGradient id="strip-outbox" x1="0" x2="0" y1="0" y2="1">
      <stop offset="0%" stop-color="#7BFF7B" stop-opacity="0.95"/>
      <stop offset="100%" stop-color="#7BFF7B" stop-opacity="0.5"/>
    </linearGradient>
  </defs>
<rect width="1400" height="820" fill="url(#bg)"/><rect width="1400" height="820" fill="url(#grid)"/>
<g>
    <text x="700" y="88" text-anchor="middle" fill="url(#titleGrad)" font-family="-apple-system, BlinkMacSystemFont, 'Inter', 'Helvetica Neue', sans-serif" font-size="40" font-weight="700" letter-spacing="7">ADMIN AGENT</text>
    
    <line x1="386" y1="106" x2="516" y2="106" stroke="rgba(123,104,238,0.35)" stroke-width="1"/>
    <text x="700" y="112" text-anchor="middle" fill="#a0a0c0" font-family="-apple-system, BlinkMacSystemFont, 'Inter', 'Helvetica Neue', sans-serif" font-size="13" font-weight="500" letter-spacing="5">SYSTEM OPERATIONS · NO EXTERNAL CONNECTIVITY</text>
    <line x1="884" y1="106" x2="1014" y2="106" stroke="rgba(123,104,238,0.35)" stroke-width="1"/>
  </g>
<text x="700" y="178" text-anchor="middle" fill="#a0a0c0" font-family="-apple-system, BlinkMacSystemFont, 'Inter', 'Helvetica Neue', sans-serif" font-size="12" font-weight="600" letter-spacing="5">WATCHES   ·   inputs</text>
<g transform="translate(64, 200)" filter="url(#softshadow)">
  <rect x="0" y="0" width="240" height="84" rx="14" fill="rgba(26,26,46,0.55)" stroke="rgba(123,104,238,0.35)" stroke-width="1.5"/>
  <rect x="0" y="0" width="240" height="84" rx="14" fill="url(#cg-monitor)"/>
  <rect x="0" y="0" width="6" height="84" rx="3" fill="url(#strip-monitor)"/>
  <text x="24" y="40" fill="#f0f0ff" font-family="-apple-system, BlinkMacSystemFont, 'Inter', 'Helvetica Neue', sans-serif" font-size="22" font-weight="600" letter-spacing="0.3">Service Status</text>
  <text x="24" y="64" fill="#8888aa" font-family="-apple-system, BlinkMacSystemFont, 'Inter', 'Helvetica Neue', sans-serif" font-size="12.5" font-weight="400" letter-spacing="0.4">process tree · launchctl</text>
</g>
<g transform="translate(322, 200)" filter="url(#softshadow)">
  <rect x="0" y="0" width="240" height="84" rx="14" fill="rgba(26,26,46,0.55)" stroke="rgba(123,104,238,0.35)" stroke-width="1.5"/>
  <rect x="0" y="0" width="240" height="84" rx="14" fill="url(#cg-monitor)"/>
  <rect x="0" y="0" width="6" height="84" rx="3" fill="url(#strip-monitor)"/>
  <text x="24" y="40" fill="#f0f0ff" font-family="-apple-system, BlinkMacSystemFont, 'Inter', 'Helvetica Neue', sans-serif" font-size="22" font-weight="600" letter-spacing="0.3">Job Queue</text>
  <text x="24" y="64" fill="#8888aa" font-family="-apple-system, BlinkMacSystemFont, 'Inter', 'Helvetica Neue', sans-serif" font-size="12.5" font-weight="400" letter-spacing="0.4">shared SQLite scan</text>
</g>
<g transform="translate(580, 200)" filter="url(#softshadow)">
  <rect x="0" y="0" width="240" height="84" rx="14" fill="rgba(26,26,46,0.55)" stroke="rgba(123,104,238,0.35)" stroke-width="1.5"/>
  <rect x="0" y="0" width="240" height="84" rx="14" fill="url(#cg-monitor)"/>
  <rect x="0" y="0" width="6" height="84" rx="3" fill="url(#strip-monitor)"/>
  <text x="24" y="40" fill="#f0f0ff" font-family="-apple-system, BlinkMacSystemFont, 'Inter', 'Helvetica Neue', sans-serif" font-size="22" font-weight="600" letter-spacing="0.3">Daemon Logs</text>
  <text x="24" y="64" fill="#8888aa" font-family="-apple-system, BlinkMacSystemFont, 'Inter', 'Helvetica Neue', sans-serif" font-size="12.5" font-weight="400" letter-spacing="0.4">tail · pattern match</text>
</g>
<g transform="translate(838, 200)" filter="url(#softshadow)">
  <rect x="0" y="0" width="240" height="84" rx="14" fill="rgba(26,26,46,0.55)" stroke="rgba(123,104,238,0.35)" stroke-width="1.5"/>
  <rect x="0" y="0" width="240" height="84" rx="14" fill="url(#cg-monitor)"/>
  <rect x="0" y="0" width="6" height="84" rx="3" fill="url(#strip-monitor)"/>
  <text x="24" y="40" fill="#f0f0ff" font-family="-apple-system, BlinkMacSystemFont, 'Inter', 'Helvetica Neue', sans-serif" font-size="22" font-weight="600" letter-spacing="0.3">Project Folders</text>
  <text x="24" y="64" fill="#8888aa" font-family="-apple-system, BlinkMacSystemFont, 'Inter', 'Helvetica Neue', sans-serif" font-size="12.5" font-weight="400" letter-spacing="0.4">state machine watch</text>
</g>
<g transform="translate(1096, 200)" filter="url(#softshadow)">
  <rect x="0" y="0" width="240" height="84" rx="14" fill="rgba(26,26,46,0.55)" stroke="rgba(123,104,238,0.35)" stroke-width="1.5"/>
  <rect x="0" y="0" width="240" height="84" rx="14" fill="url(#cg-monitor)"/>
  <rect x="0" y="0" width="6" height="84" rx="3" fill="url(#strip-monitor)"/>
  <text x="24" y="40" fill="#f0f0ff" font-family="-apple-system, BlinkMacSystemFont, 'Inter', 'Helvetica Neue', sans-serif" font-size="22" font-weight="600" letter-spacing="0.3">Audit Log</text>
  <text x="24" y="64" fill="#8888aa" font-family="-apple-system, BlinkMacSystemFont, 'Inter', 'Helvetica Neue', sans-serif" font-size="12.5" font-weight="400" letter-spacing="0.4">oversight decisions</text>
</g>
<g transform="translate(350, 340)" filter="url(#softshadow)">
  <rect x="0" y="0" width="700" height="130" rx="14" fill="rgba(26,26,46,0.7)" stroke="rgba(0,180,255,0.7)" stroke-width="2"/>
  <rect x="0" y="0" width="700" height="130" rx="14" fill="url(#cg-admin)"/>
  <rect x="0" y="0" width="6" height="130" rx="3" fill="url(#strip-admin)"/>
  <g transform="translate(40, 32)">
    <circle cx="0" cy="0" r="22" fill="rgba(0,180,255,0.08)" stroke="rgba(0,180,255,0.7)" stroke-width="1.5"/>
    <text x="0" y="6" text-anchor="middle" fill="#00B4FF" font-family="-apple-system, BlinkMacSystemFont, 'Inter', 'Helvetica Neue', sans-serif" font-size="14" font-weight="700" letter-spacing="1">A</text>
  </g>
  <text x="80" y="40" fill="#f0f0ff" font-family="-apple-system, BlinkMacSystemFont, 'Inter', 'Helvetica Neue', sans-serif" font-size="22" font-weight="600" letter-spacing="0.3">Admin Agent</text>
  <text x="80" y="64" fill="#8888aa" font-family="-apple-system, BlinkMacSystemFont, 'Inter', 'Helvetica Neue', sans-serif" font-size="12.5" font-weight="400" letter-spacing="0.4">reads, deploys, monitors, responds   ·   first-call when something breaks</text>
  <g transform="translate(281, 92)">
    <rect x="0" y="0" width="59" height="26" rx="13" fill="rgba(0,180,255,0.06)" stroke="rgba(0,180,255,0.45)" stroke-width="1"/>
    <text x="29.5" y="17" text-anchor="middle" fill="#e8e8f8" font-family="-apple-system, BlinkMacSystemFont, 'Inter', 'Helvetica Neue', sans-serif" font-size="12" font-weight="500" letter-spacing="0.3">Read</text>
  </g>
  <g transform="translate(350, 92)">
    <rect x="0" y="0" width="75" height="26" rx="13" fill="rgba(0,180,255,0.06)" stroke="rgba(0,180,255,0.45)" stroke-width="1"/>
    <text x="37.5" y="17" text-anchor="middle" fill="#e8e8f8" font-family="-apple-system, BlinkMacSystemFont, 'Inter', 'Helvetica Neue', sans-serif" font-size="12" font-weight="500" letter-spacing="0.3">Deploy</text>
  </g>
  <g transform="translate(435, 92)">
    <rect x="0" y="0" width="51" height="26" rx="13" fill="rgba(0,180,255,0.06)" stroke="rgba(0,180,255,0.45)" stroke-width="1"/>
    <text x="25.5" y="17" text-anchor="middle" fill="#e8e8f8" font-family="-apple-system, BlinkMacSystemFont, 'Inter', 'Helvetica Neue', sans-serif" font-size="12" font-weight="500" letter-spacing="0.3">Log</text>
  </g>
  <g transform="translate(496, 92)">
    <rect x="0" y="0" width="83" height="26" rx="13" fill="rgba(0,180,255,0.06)" stroke="rgba(0,180,255,0.45)" stroke-width="1"/>
    <text x="41.5" y="17" text-anchor="middle" fill="#e8e8f8" font-family="-apple-system, BlinkMacSystemFont, 'Inter', 'Helvetica Neue', sans-serif" font-size="12" font-weight="500" letter-spacing="0.3">Monitor</text>
  </g>
  <g transform="translate(589, 92)">
    <rect x="0" y="0" width="83" height="26" rx="13" fill="rgba(0,180,255,0.06)" stroke="rgba(0,180,255,0.45)" stroke-width="1"/>
    <text x="41.5" y="17" text-anchor="middle" fill="#e8e8f8" font-family="-apple-system, BlinkMacSystemFont, 'Inter', 'Helvetica Neue', sans-serif" font-size="12" font-weight="500" letter-spacing="0.3">Respond</text>
  </g>
</g>
<text x="700" y="508" text-anchor="middle" fill="#a0a0c0" font-family="-apple-system, BlinkMacSystemFont, 'Inter', 'Helvetica Neue', sans-serif" font-size="12" font-weight="600" letter-spacing="5">ACTS ON   ·   outputs</text>
<g transform="translate(64, 530)" filter="url(#softshadow)">
  <rect x="0" y="0" width="240" height="84" rx="14" fill="rgba(26,26,46,0.55)" stroke="rgba(255,140,0,0.35)" stroke-width="1.5"/>
  <rect x="0" y="0" width="240" height="84" rx="14" fill="url(#cg-act)"/>
  <rect x="0" y="0" width="6" height="84" rx="3" fill="url(#strip-act)"/>
  <text x="24" y="40" fill="#f0f0ff" font-family="-apple-system, BlinkMacSystemFont, 'Inter', 'Helvetica Neue', sans-serif" font-size="22" font-weight="600" letter-spacing="0.3">Deploys</text>
  <text x="24" y="64" fill="#8888aa" font-family="-apple-system, BlinkMacSystemFont, 'Inter', 'Helvetica Neue', sans-serif" font-size="12.5" font-weight="400" letter-spacing="0.4">deploy.sh + test.sh</text>
</g>
<g transform="translate(322, 530)" filter="url(#softshadow)">
  <rect x="0" y="0" width="240" height="84" rx="14" fill="rgba(26,26,46,0.55)" stroke="rgba(255,140,0,0.35)" stroke-width="1.5"/>
  <rect x="0" y="0" width="240" height="84" rx="14" fill="url(#cg-act)"/>
  <rect x="0" y="0" width="6" height="84" rx="3" fill="url(#strip-act)"/>
  <text x="24" y="40" fill="#f0f0ff" font-family="-apple-system, BlinkMacSystemFont, 'Inter', 'Helvetica Neue', sans-serif" font-size="22" font-weight="600" letter-spacing="0.3">CHANGELOG</text>
  <text x="24" y="64" fill="#8888aa" font-family="-apple-system, BlinkMacSystemFont, 'Inter', 'Helvetica Neue', sans-serif" font-size="12.5" font-weight="400" letter-spacing="0.4">append entry</text>
</g>
<g transform="translate(580, 530)" filter="url(#softshadow)">
  <rect x="0" y="0" width="240" height="84" rx="14" fill="rgba(26,26,46,0.55)" stroke="rgba(255,140,0,0.35)" stroke-width="1.5"/>
  <rect x="0" y="0" width="240" height="84" rx="14" fill="url(#cg-act)"/>
  <rect x="0" y="0" width="6" height="84" rx="3" fill="url(#strip-act)"/>
  <text x="24" y="40" fill="#f0f0ff" font-family="-apple-system, BlinkMacSystemFont, 'Inter', 'Helvetica Neue', sans-serif" font-size="22" font-weight="600" letter-spacing="0.3">Sessions Log</text>
  <text x="24" y="64" fill="#8888aa" font-family="-apple-system, BlinkMacSystemFont, 'Inter', 'Helvetica Neue', sans-serif" font-size="12.5" font-weight="400" letter-spacing="0.4">open threads + notes</text>
</g>
<g transform="translate(838, 530)" filter="url(#softshadow)">
  <rect x="0" y="0" width="240" height="84" rx="14" fill="rgba(26,26,46,0.55)" stroke="rgba(255,140,0,0.35)" stroke-width="1.5"/>
  <rect x="0" y="0" width="240" height="84" rx="14" fill="url(#cg-act)"/>
  <rect x="0" y="0" width="6" height="84" rx="3" fill="url(#strip-act)"/>
  <text x="24" y="40" fill="#f0f0ff" font-family="-apple-system, BlinkMacSystemFont, 'Inter', 'Helvetica Neue', sans-serif" font-size="22" font-weight="600" letter-spacing="0.3">Memory Files</text>
  <text x="24" y="64" fill="#8888aa" font-family="-apple-system, BlinkMacSystemFont, 'Inter', 'Helvetica Neue', sans-serif" font-size="12.5" font-weight="400" letter-spacing="0.4">index + topic files</text>
</g>
<g transform="translate(1096, 530)" filter="url(#softshadow)">
  <rect x="0" y="0" width="240" height="84" rx="14" fill="rgba(26,26,46,0.55)" stroke="rgba(255,140,0,0.35)" stroke-width="1.5"/>
  <rect x="0" y="0" width="240" height="84" rx="14" fill="url(#cg-act)"/>
  <rect x="0" y="0" width="6" height="84" rx="3" fill="url(#strip-act)"/>
  <text x="24" y="40" fill="#f0f0ff" font-family="-apple-system, BlinkMacSystemFont, 'Inter', 'Helvetica Neue', sans-serif" font-size="22" font-weight="600" letter-spacing="0.3">Watchdog</text>
  <text x="24" y="64" fill="#8888aa" font-family="-apple-system, BlinkMacSystemFont, 'Inter', 'Helvetica Neue', sans-serif" font-size="12.5" font-weight="400" letter-spacing="0.4">rebaseline · backups</text>
</g>
<g transform="translate(60, 670)" filter="url(#softshadow)">
  <rect x="0" y="0" width="640" height="90" rx="14" fill="rgba(26,26,46,0.55)" stroke="rgba(255,215,0,0.35)" stroke-width="1.5"/>
  <rect x="0" y="0" width="640" height="90" rx="14" fill="url(#cg-inbox)"/>
  <rect x="0" y="0" width="6" height="90" rx="3" fill="url(#strip-inbox)"/>
  <text x="24" y="40" fill="#f0f0ff" font-family="-apple-system, BlinkMacSystemFont, 'Inter', 'Helvetica Neue', sans-serif" font-size="22" font-weight="600" letter-spacing="0.3">Inbound</text>
  <text x="24" y="64" fill="#8888aa" font-family="-apple-system, BlinkMacSystemFont, 'Inter', 'Helvetica Neue', sans-serif" font-size="12.5" font-weight="400" letter-spacing="0.4">Personal Agent messages   ·   Oversight reports   ·   Argus mitigation queue</text>
</g>
<g transform="translate(700, 670)" filter="url(#softshadow)">
  <rect x="0" y="0" width="640" height="90" rx="14" fill="rgba(26,26,46,0.55)" stroke="rgba(123,255,123,0.35)" stroke-width="1.5"/>
  <rect x="0" y="0" width="640" height="90" rx="14" fill="url(#cg-outbox)"/>
  <rect x="0" y="0" width="6" height="90" rx="3" fill="url(#strip-outbox)"/>
  <text x="24" y="40" fill="#f0f0ff" font-family="-apple-system, BlinkMacSystemFont, 'Inter', 'Helvetica Neue', sans-serif" font-size="22" font-weight="600" letter-spacing="0.3">Outbound (state changes)</text>
  <text x="24" y="64" fill="#8888aa" font-family="-apple-system, BlinkMacSystemFont, 'Inter', 'Helvetica Neue', sans-serif" font-size="12.5" font-weight="400" letter-spacing="0.4">project status   ·   deploy artefacts   ·   status replies to Personal Agent</text>
</g>
<line x1="184" y1="284" x2="184" y2="340" stroke="#7080a0" stroke-width="1.5" stroke-opacity="0.7"  marker-end="url(#arrow)"/>
<line x1="442" y1="284" x2="442" y2="340" stroke="#7080a0" stroke-width="1.5" stroke-opacity="0.7"  marker-end="url(#arrow)"/>
<line x1="700" y1="284" x2="700" y2="340" stroke="#7080a0" stroke-width="1.5" stroke-opacity="0.7"  marker-end="url(#arrow)"/>
<line x1="958" y1="284" x2="958" y2="340" stroke="#7080a0" stroke-width="1.5" stroke-opacity="0.7"  marker-end="url(#arrow)"/>
<line x1="1216" y1="284" x2="1216" y2="340" stroke="#7080a0" stroke-width="1.5" stroke-opacity="0.7"  marker-end="url(#arrow)"/>
<line x1="184" y1="470" x2="184" y2="530" stroke="#7080a0" stroke-width="1.5" stroke-opacity="0.7"  marker-end="url(#arrow)"/>
<line x1="442" y1="470" x2="442" y2="530" stroke="#7080a0" stroke-width="1.5" stroke-opacity="0.7"  marker-end="url(#arrow)"/>
<line x1="700" y1="470" x2="700" y2="530" stroke="#7080a0" stroke-width="1.5" stroke-opacity="0.7"  marker-end="url(#arrow)"/>
<line x1="958" y1="470" x2="958" y2="530" stroke="#7080a0" stroke-width="1.5" stroke-opacity="0.7"  marker-end="url(#arrow)"/>
<line x1="1216" y1="470" x2="1216" y2="530" stroke="#7080a0" stroke-width="1.5" stroke-opacity="0.7"  marker-end="url(#arrow)"/>
</svg>
